<svg t="1776488388773" class="icon" viewBox="0 0 1027 1024" version="1.1" xmlns="http://www.w3.org/2000/svg" p-id="2697" width="32" height="32"><path d="M513.850602 0A512 512 0 1 0 1027.701205 512 514.46747 514.46747 0 0 0 513.850602 0zM404.66506 703.969157L256.863614 851.277108a31.706988 31.706988 0 1 1-44.907951-44.784578l148.048192-147.184578a31.706988 31.706988 0 0 1 44.907952 44.784578z m462.403856-44.784579H674.359518c-12.337349 19.246265-77.108434 102.4-115.600964 153.6-19.246265 25.661687-51.323373 25.661687-70.693012-12.337349-25.661687-70.446265-64.27759-172.722892-64.27759-172.722892S308.433735 576.030843 237.617349 543.953735c-25.661687-12.337349-32.077108-44.784578 0-64.030843 57.862169-44.784578 148.048193-115.230843 148.048193-115.230844s6.415422-127.938313 6.415422-204.8c0-44.784578 12.337349-51.2 19.246265-51.2s19.246265 0 44.907952 19.246265C520.266024 172.722892 623.036145 243.169157 623.036145 243.169157s109.185542-31.953735 173.463132-51.2c32.077108-12.337349 57.862169 12.337349 51.323374 38.369156l-51.323374 204.8s64.27759 89.569157 102.770121 153.6c19.246265 38.369157 6.415422 70.446265-32.077109 70.446265z m0 0" fill="#6EA62F" p-id="2698"></path></svg>