<svg t="1776577371204" class="icon" viewBox="0 0 1024 1024" version="1.1" xmlns="http://www.w3.org/2000/svg" p-id="5688" width="32" height="32"><path d="M852.992 427.52c-10.24-7.168-24.064-11.264-43.52-11.264h-65.536v92.16H809.472c20.48 0 34.304-4.096 43.52-11.264 9.216-8.192 14.336-19.456 14.336-35.328-0.512-15.872-5.12-27.136-14.336-34.304z" fill="#FFDF24" p-id="5689"></path><path d="M902.656 286.72h-780.8c-67.072 0-121.856 54.784-121.856 121.856v207.36c0 67.072 54.784 121.856 121.856 121.856h780.8C969.728 737.28 1024.512 682.496 1024.512 615.424v-207.36c0-66.56-54.784-121.344-121.856-121.344z m-596.992 340.992c-18.432 13.312-43.52 20.48-76.8 20.48-31.232 0-56.832-7.168-74.752-19.456-20.992-15.36-33.28-39.424-35.328-72.704h39.424c3.072 20.48 10.24 35.328 22.016 44.544 10.24 8.192 26.112 12.288 48.64 12.288 20.48 0 35.328-3.072 47.616-10.24 11.264-6.144 17.408-15.36 17.408-27.136 0-14.336-9.216-26.112-25.088-34.304-6.144-2.048-23.04-8.192-52.736-17.408-32.256-10.24-52.736-17.408-60.928-20.992-20.48-12.288-30.208-29.184-30.208-52.736 0-23.04 10.24-41.472 29.184-54.784 18.432-13.312 41.472-19.456 69.632-19.456 30.208 0 54.784 6.144 71.68 19.456 18.432 14.336 28.16 35.328 31.232 63.488h-39.424c-3.072-16.384-10.24-29.184-20.48-36.352-10.24-7.168-24.064-11.264-44.544-11.264-17.408 0-30.208 3.072-39.424 8.192-12.288 5.12-17.408 15.36-17.408 28.16 0 12.288 6.144 20.992 19.456 28.16 6.144 3.072 21.504 9.216 45.568 16.384 35.328 10.24 58.88 19.456 68.608 25.088 22.016 13.312 33.28 32.256 33.28 54.784 0.512 23.552-8.704 43.008-26.624 55.808z m183.808 16.384h-48.64l-95.232-262.144h43.52l74.752 217.6h1.024l74.752-217.6h43.52l-93.696 262.144z m162.304 1.024h-39.424v-263.168h39.424V645.12z m159.744-103.424h-67.584V645.12h-40.448v-263.168h109.056c62.976 0 94.208 26.112 94.208 78.848-0.512 53.76-32.768 80.896-95.232 80.896z" fill="#FFDF24" p-id="5690"></path></svg>