<?xml version="1.0" encoding="utf-8"?>
<svg version="1.1" xmlns:xlink="http://www.w3.org/1999/xlink" width="300px" height="132px" xmlns="http://www.w3.org/2000/svg">
  <defs>
    <pattern id="BGPattern" patternUnits="userSpaceOnUse" alignment="0 0" imageRepeat="None" />
    <mask fill="white" id="Clip8">
      <path d="M 0 132  L 0 0  L 300 0  L 300 132  L 0 132  Z " fill-rule="evenodd" />
    </mask>
  </defs>
  <g transform="matrix(1 0 0 1 -136 -93 )">
    <path d="M 0 132  L 0 0  L 300 0  L 300 132  L 0 132  Z " fill-rule="nonzero" fill="rgba(242, 242, 242, 1)" stroke="none" transform="matrix(1 0 0 1 136 93 )" class="fill" />
    <path d="M 0 132  L 0 0  L 300 0  L 300 132  L 0 132  Z " stroke-width="2" stroke-dasharray="0" stroke="rgba(121, 121, 121, 1)" fill="none" transform="matrix(1 0 0 1 136 93 )" class="stroke" mask="url(#Clip8)" />
    <path d="M 298.9598692813378 0.4576575162113828  L 1.0401307186622335 131.54234248378862  M 1.0401307186622335 0.4576575162113828  L 298.9598692813378 131.54234248378862  " stroke-width="1" stroke-dasharray="0" stroke="rgba(121, 121, 121, 1)" fill="none" transform="matrix(1 0 0 1 136 93 )" class="stroke" />
  </g>
</svg>