<svg t="1776840365692" class="icon" viewBox="0 0 1024 1024" version="1.1" xmlns="http://www.w3.org/2000/svg" p-id="6726" width="32" height="32"><path d="M957.748476 707.168925c-24.951061-11.957957-44.831843-29.795063-60.609916-52.359448-18.691027-26.730574-29.980386-56.66079-37.90321-88.032636a5.462428 5.462428 0 0 1-0.105461-1.935143c1.186683-10.151823 2.463468-20.293407 3.575408-30.453421 0.449486-4.101685 0.552898-8.241253 0.813989-12.370583h-18.529253c-0.870303 9.638856-1.517398 19.108772-2.619099 28.524421-2.20033 18.794439-5.811573 37.313453-11.833042 55.296975-15.195482 45.381669-42.165645 81.470555-83.755868 106.004895-0.470987 0.277473-0.905115 0.618427-1.422176 0.974739l13.366823 16.136433c0.212968-0.095221 0.446414-0.172013 0.652215-0.294879 21.165757-12.696178 39.28648-28.82442 54.200393-48.484042 17.784888-23.442878 29.660934-49.76697 37.585807-77.98013 0.288736-1.029005 0.644024-2.03958 0.851872-2.691794 4.631033 12.044987 8.907802 24.325468 14.026205 36.24554 12.100277 28.182444 28.928856 53.104836 52.290848 73.297903 7.815317 6.755595 16.388309 12.435087 25.346281 17.664069 2.981554-3.583599 5.798263-7.089382 8.751148-10.476394 2.1819-2.502376 4.541955-4.850145 6.822148-7.267538v-0.98293c-0.501704-0.272353-0.991121-0.570304-1.505112-0.816037zM438.370359 352.884125c8.12453-11.82178 17.130625-22.971891 28.075959-32.396756 7.253204-6.2457 15.294799-11.065129 24.828195-12.709488 3.171997-0.546755 4.583935-1.808181 5.128642-4.907482 0.641976-3.658342 1.783608-7.229654 2.805446-11.21564H351.259219c-0.737197 0-1.514326-0.139248-2.198282 0.052218-0.593853 0.165869-1.424224 0.612283-1.562449 1.1017-1.30443 4.622842-2.482922 9.28152-3.75254 14.140881 1.490777 0.279521 2.763466 0.531396 4.040252 0.756651 6.074712 1.074056 11.976387 2.665174 17.475675 5.569936 10.208137 5.39178 15.393092 13.812213 15.464764 25.371878 0.046075 7.395524-1.651527 14.46238-4.306462 21.279409-5.847409 15.014254-13.955557 28.846945-22.659606 42.337658-13.311533 20.629242-26.702929 41.206265-40.072824 61.798647-40.059513 61.69421-80.135409 123.379206-120.135537 185.113347-1.349481 2.082583-2.770634 2.76449-5.397923 2.00272 0-1.05153 0.002048-2.022174 0-2.991793-0.020478-7.776409 0.195562-15.563057-0.106484-23.329227-0.887709-22.818308-1.982242-45.62945-2.995889-68.442639-0.875422-19.706721-1.744701-39.413442-2.629337-59.119138a122573.540883 122573.540883 0 0 0-3.284624-72.607804c-0.740269-16.271586-1.554258-32.539076-2.228999-48.812709-0.520134-12.531332-0.394196-25.036044 2.251524-37.388197 3.498616-16.334043 13.319724-26.385525 29.685507-29.92612 2.636505-0.570304 5.329323-0.87747 7.974019-1.411938 0.714672-0.144368 1.807158-0.543683 1.952549-1.048458 1.347433-4.67506 2.524901-9.399267 3.840594-14.447022H72.423505c-0.655287 0-1.330027-0.088054-1.957669 0.043003-0.480202 0.100341-1.202041 0.398291-1.301358 0.753579-1.33617 4.754923-2.581215 9.535444-3.880526 14.425521 2.681556 0.493513 5.010895 0.905115 7.334091 1.351528 13.92996 2.676436 23.610796 10.580831 28.474251 23.899532 2.091798 5.728638 3.94503 11.682532 4.813285 17.692738 1.78668 12.368535 3.115683 24.822052 4.130353 37.280689 1.793847 22.020702 3.232406 44.070072 4.783592 66.110227 1.39658 19.83573 2.724559 39.67658 4.121139 59.513335 1.551186 22.040156 3.165853 44.075192 4.717039 66.115347 1.556306 22.122066 3.056298 44.247204 4.601341 66.370294 1.6075 23.020014 3.23343 46.040028 4.862431 69.059018 0.338906 4.793831 0.722863 9.585614 1.107844 14.675348h3.032749c14.326203 0 28.653431-0.057338 42.979634 0.058362 2.322172 0.01843 3.636841-0.697266 4.937175-2.623195C245.404835 637.205817 305.653319 548.046907 365.990881 458.94943a18662.244165 18662.244165 0 0 1 72.379478-106.065305zM334.698898 732.394388h17.069192v-14.481834h116.182316v14.116307h16.92892v-95.462972H334.699922l-0.001024 95.828499z m17.107076-80.250084h115.876174v50.202121H351.805974v-50.202121zM421.704577 527.643944l5.010895-6.246724c-8.001664 0-15.433024-0.037884-22.862336 0.062457-0.696242 0.009215-1.57576 0.746412-2.040603 1.385316-6.859008 9.431008-14.65999 18.021406-22.972915 26.179724-21.892716 21.483162-47.258451 37.969763-74.409842 51.907915-0.764842 0.393172-1.499992 0.845729-2.269954 1.282928l10.796871 16.16203 33.426784-20.071224v10.335098h126.42936v-11.516662l32.868767 18.622426 11.573999-17.471579c-38.107988-15.264082-70.432048-38.059865-95.551026-70.631705z m-69.018062 65.797943c21.673605-15.651111 41.412066-32.444878 57.623242-53.335211 16.755883 20.387605 35.673189 38.126418 57.119491 53.335211H352.686515zM696.447822 674.437359c-14.616987-19.703649-23.825812-41.836978-28.930904-65.703745-1.444702-6.752524-2.803398-13.708801-2.753228-20.560641 0.163822-22.415921 0.998288-44.827747 1.560402-67.240597 0.017406-0.699314-0.119795-1.402723-0.190443-2.173709h-17.255539c0 1.044363 0.003072 1.925928 0 2.807494-0.041979 9.412578 0.058361 18.828227-0.156655 28.236709-0.504775 21.989985-0.135153 44.01683-3.766874 65.851185-3.664486 22.032988-11.432704 42.212744-25.496792 59.763162-11.902667 14.851457-26.009759 27.384837-40.954389 39.041772-0.750508 0.585662-1.474395 1.206137-2.282241 1.870638l11.758299 15.163742c34.144528-25.088262 60.06828-55.853968 70.673685-97.8947 10.901307 39.365319 32.992657 70.991089 65.100677 95.909386l14.558625-16.271585c-0.978834-0.666549-1.778489-1.224567-2.591454-1.761083-15.242581-10.067864-28.387221-22.364727-39.273169-37.038028zM592.989329 523.127586l-17.469531-5.104069c-0.320476 0.910234-0.591806 1.582927-0.795559 2.276097-5.239221 17.755195-12.003008 34.925752-19.85416 51.676517-8.459341 18.048027-18.638808 35.087526-30.283457 51.249556-1.116035 1.550162-1.216376 2.742989-0.432079 4.419089 1.382245 2.956981 2.551522 6.017374 3.736157 9.062409 0.901019 2.315005 1.687363 4.673013 2.524901 7.01259l0.794535 0.263139 24.578368-36.850657V730.299518h16.759979v-3.366534c0-50.005535-0.016382-100.011071 0.057337-150.016607 0.003072-2.118419 0.547779-4.355608 1.344362-6.333754 5.282224-13.112899 10.722127-26.161294 16.062713-39.250644 1.06996-2.621146 1.938215-5.326251 2.976434-8.204393z" fill="#d81e06" p-id="6727"></path><path d="M732.859232 574.759051l-14.70197-10.913594-38.199113 53.282993 12.578431 10.23271c13.480474-17.588302 26.832963-35.006639 40.322652-52.602109zM612.832227 627.186075l15.502647-9.771961-30.40325-51.747165-14.200266 8.724527 29.100869 52.794599z" fill="#d81e06" p-id="6728"></path></svg>