<?xml version="1.0" encoding="utf-8"?>
<svg version="1.1" xmlns:xlink="http://www.w3.org/1999/xlink" width="72px" height="60px" xmlns="http://www.w3.org/2000/svg">
  <g transform="matrix(1 0 0 1 -124 -172 )">
    <path d="M 124 172  L 196 172  L 196 232  L 124 232  L 124 172  " fill-rule="nonzero" fill="rgba(204, 204, 204, 1)" stroke="none" class="fill" />
    <path d="M 128 176  L 192 176  L 192 228  L 128 228  L 128 176  " fill-rule="nonzero" fill="rgba(255, 255, 255, 1)" stroke="none" class="fill" />
    <path d="M 165.94 190  C 163.42 190  161.44 188.02  161.44 185.5  C 161.44 182.98  163.42 181  165.94 181  C 168.46 181  170.44 182.98  170.44 185.5  C 170.44 188.02  168.46 190  165.94 190  " fill-rule="nonzero" fill="rgba(204, 204, 204, 1)" stroke="none" class="fill" />
    <path d="M 130 227  L 130 200.05  L 145.25 187.8  L 166.6 202.5  L 178.8 195.15  L 191 202.5  L 191 227  L 130 227  " fill-rule="nonzero" fill="rgba(22, 155, 213, 1)" stroke="none" class="fill" />
  </g>
</svg>