<svg t="1781403548051" class="icon" viewBox="0 0 1675 1024" version="1.1" xmlns="http://www.w3.org/2000/svg" p-id="12830" width="32" height="32"><path d="M139.636364 0h1396.363636c79.127273 0 139.636364 60.509091 139.636364 139.636364v744.727272c0 79.127273-60.509091 139.636364-139.636364 139.636364H139.636364c-79.127273 0-139.636364-60.509091-139.636364-139.636364V139.636364c0-79.127273 60.509091-139.636364 139.636364-139.636364z" fill="#E6FCEC" p-id="12831"></path><path d="M600.436364 316.509091c-9.309091-23.272727-23.272727-60.509091-41.890909-83.781818l-74.472728 18.618182c9.309091 18.618182 23.272727 41.890909 27.927273 65.163636H307.2V465.454545c0 83.781818-4.654545 195.490909-74.472727 274.618182 18.618182 9.309091 51.2 37.236364 65.163636 46.545455 69.818182-74.472727 88.436364-195.490909 93.090909-288.581818H791.272727v-186.181819h-190.836363z m107.054545 121.018182H386.327273V381.672727h321.163636v55.854546z" fill="#53B272" p-id="12832"></path><path d="M400.290909 544.581818v237.381818h74.472727v-27.927272h246.690909v27.927272h79.127273v-237.381818H400.290909z m321.163636 144.290909h-246.690909v-79.127272h246.690909v79.127272zM954.181818 274.618182v214.109091c0 83.781818-4.654545 190.836364-74.472727 260.654545 18.618182 9.309091 46.545455 32.581818 60.509091 46.545455 46.545455-46.545455 69.818182-111.709091 83.781818-176.872728h130.327273v167.563637h79.127272v-167.563637h134.981819v88.436364c0 9.309091-4.654545 13.963636-18.618182 13.963636h-88.436364c9.309091 18.618182 23.272727 46.545455 23.272727 69.818182 60.509091 0 97.745455 0 125.672728-13.963636 27.927273-9.309091 37.236364-27.927273 37.236363-69.818182V274.618182H954.181818z m200.145455 274.618182h-125.672728v-69.818182h121.018182v69.818182z m0-139.636364h-121.018182V339.781818h121.018182v69.818182z m214.109091 139.636364h-134.981819v-74.472728h134.981819v74.472728z m0-139.636364h-134.981819V339.781818h134.981819v69.818182z" fill="#53B272" p-id="12833"></path></svg>