<svg t="1781413282275" class="icon" viewBox="0 0 5696 1024" version="1.1" xmlns="http://www.w3.org/2000/svg" p-id="21262" width="32" height="32"><path d="M640 0h4640a384 384 0 0 1 384 384v256a384 384 0 0 1-384 384H0v-384C0 286.528 286.528 0 640 0z" fill="#ED7A08" p-id="21263"></path><path d="M3792 685.952l-244.48 162.56 79.04-282.752-230.208-182.336 293.44-12.16L3792 96l102.208 275.264 293.44 12.16-230.208 182.336 79.104 282.816z" fill="#FFFFFF" opacity=".44" p-id="21264"></path><path d="M912 685.952l-244.48 162.56 79.04-282.752L516.352 383.36l293.44-12.16L912 96l102.208 275.264 293.44 12.16-230.208 182.336 79.104 282.816zM1872 685.952l-244.48 162.56 79.04-282.752-230.208-182.336 293.44-12.16L1872 96l102.208 275.264 293.44 12.16-230.208 182.336 79.104 282.816z" fill="#FFFFFF" p-id="21265"></path><path d="M2832 685.952l-244.48 162.56 79.04-282.752-230.208-182.336 293.44-12.16L2832 96l102.208 275.264 293.44 12.16-230.208 182.336 79.104 282.816zM4752 685.952l-244.48 162.56 79.04-282.752-230.208-182.336 293.44-12.16L4752 96l102.208 275.264 293.44 12.16-230.208 182.336 79.104 282.816z" fill="#FFFFFF" opacity=".44" p-id="21266"></path></svg>