<?xml version="1.0" encoding="utf-8"?>
<svg version="1.1" xmlns:xlink="http://www.w3.org/1999/xlink" width="89px" height="86px" xmlns="http://www.w3.org/2000/svg">
  <g transform="matrix(1 0 0 1 -295 -1481 )">
    <path d="M 295 1481  L 384 1481  L 384 1567  L 295 1567  L 295 1481  " fill-rule="nonzero" fill="rgba(204, 204, 204, 1)" stroke="none" class="fill" />
    <path d="M 301 1487  L 378 1487  L 378 1561  L 301 1561  L 301 1487  " fill-rule="nonzero" fill="rgba(255, 255, 255, 1)" stroke="none" class="fill" />
    <path d="M 347.72999999999996 1506.8000000000002  C 344.118 1506.8000000000002  341.28 1503.9620000000002  341.28 1500.3500000000001  C 341.28 1496.738  344.118 1493.9  347.72999999999996 1493.9  C 351.3419999999999 1493.9  354.17999999999995 1496.738  354.17999999999995 1500.3500000000001  C 354.17999999999995 1503.9620000000002  351.3419999999999 1506.8000000000002  347.72999999999996 1506.8000000000002  " fill-rule="nonzero" fill="rgba(204, 204, 204, 1)" stroke="none" class="fill" />
    <path d="M 303 1559  L 303 1520.5  L 321.25 1503  L 346.8 1518.4157303370787  L 361.4 1513.5  L 376 1518.4157303370787  L 376 1559  L 303 1559  " fill-rule="nonzero" fill="rgba(22, 155, 213, 1)" stroke="none" class="fill" />
  </g>
</svg>